<?xml version="1.0" encoding="utf-8"?>
<!-- Svg Vector Icons : http://www.onlinewebfonts.com/icon -->
<!DOCTYPE svg PUBLIC "-//W3C//DTD SVG 1.1//EN" "http://www.w3.org/Graphics/SVG/1.1/DTD/svg11.dtd">
<svg version="1.1" xmlns="http://www.w3.org/2000/svg" xmlns:xlink="http://www.w3.org/1999/xlink" x="0px" y="0px" viewBox="0 0 1000 1000" enable-background="new 0 0 1000 1000" xml:space="preserve">
<metadata> Svg Vector Icons : http://www.onlinewebfonts.com/icon </metadata>
<g><g transform="translate(0.000000,511.000000) scale(0.100000,-0.100000)"><path d="M7120,3149.2c-301.2-72.9-516.1-308.9-569.8-625.4c-69.1-404.8,205.3-788.5,623.5-865.3c510.4-94,972.7,368.4,878.7,876.8C7971.9,2980.4,7553.6,3254.7,7120,3149.2z"/><path d="M6471.5,1610.5C6414,1579.8,5468.1,179.3,5441.3,85.3c-51.8-178.4,142-337.7,312.7-257.1c55.6,24.9,149.7,155.4,558.3,769.4c408.6,613.9,491.1,750.2,491.1,805.8C6803.4,1585.6,6628.9,1695,6471.5,1610.5z"/><path d="M7875.9,1516.5c-53.7-28.8-113.2-134.3-113.2-199.5c0-34.5,988.1-2436.6,1093.6-2659.1c72.9-153.5,251.3-188,368.3-72.9c111.3,113.2,126.6,67.2-462.4,1479.2c-295.5,709.9-550.6,1320-567.9,1352.6C8140.7,1531.9,7991,1577.9,7875.9,1516.5z"/><path d="M2051.2,685.8c-209.1-74.8-341.5-214.9-402.9-424c-55.6-195.7,7.7-437.4,157.3-587.1c234.1-232.1,629.3-232.1,863.3,0c232.1,234.1,232.1,629.3,0,863.4C2511.6,693.5,2248.8,756.8,2051.2,685.8z"/><path d="M3108.3,75.7c-161.2-78.7-159.2-341.5,3.8-406.7c30.7-13.4,305-86.3,608.2-165c506.5-132.4,558.3-142,623.5-120.9c82.5,26.9,157.3,128.5,157.3,213c0,78.7-59.5,172.7-126.6,199.5c-67.1,26.9-1149.2,310.8-1183.7,310.8C3179.3,106.4,3140.9,92.9,3108.3,75.7z"/><path d="M5038.4-217.9c-214.9-69.1-333.8-228.3-333.8-443.2c0-262.9,184.2-448.9,449-448.9c264.7,0,448.9,186.1,448.9,448.9c0,182.3-84.4,324.2-245.6,406.7C5274.3-212.1,5111.2-192.9,5038.4-217.9z"/><path d="M1527.4-576.6c-51.8-32.6-738.6-1007.2-771.3-1097.4c-51.8-138.1,51.8-291.6,195.7-291.6c42.2,0,95.9,9.6,122.8,21.1c30.7,15.4,180.3,212.9,401,533.4c193.8,280.1,362.6,529.5,376,552.5c28.8,57.6,26.9,113.2-9.6,189.9C1788.3-555.5,1634.8-511.4,1527.4-576.6z"/><path d="M9335.9-1752.7c-214.9-69.1-333.8-228.3-333.8-443.2c0-262.9,184.2-449,449-449c264.7,0,448.9,186.1,448.9,449c0,182.2-84.4,324.2-245.6,406.7C9571.9-1746.9,9408.8-1727.8,9335.9-1752.7z"/><path d="M433.8-2059.6C218.9-2128.7,100-2288,100-2502.9c0-262.9,184.2-448.9,448.9-448.9s448.9,186.1,448.9,448.9c0,182.3-84.4,324.2-245.6,406.7C669.8-2053.9,506.7-2034.7,433.8-2059.6z"/></g></g>
</svg>